<?xml version="1.0" encoding="UTF-8"?>
<!DOCTYPE svg PUBLIC "-//W3C//DTD SVG 1.1//EN" "http://www.w3.org/Graphics/SVG/1.1/DTD/svg11.dtd">
<svg xmlns="http://www.w3.org/2000/svg" version="1.1" width="256px" height="256px" style="shape-rendering:geometricPrecision; text-rendering:geometricPrecision; image-rendering:optimizeQuality; fill-rule:evenodd; clip-rule:evenodd" xmlns:xlink="http://www.w3.org/1999/xlink">
<g><path style="opacity:0.938" fill="#9ca3af" d="M 192.5,164.5 C 192.233,166.965 191.566,169.299 190.5,171.5C 190.167,171.5 189.833,171.5 189.5,171.5C 181.828,170.214 174.162,170.214 166.5,171.5C 131.832,171.333 97.1651,171.5 62.5,172C 60.393,173.264 59.393,175.097 59.5,177.5C 92.5,177.5 125.5,177.5 158.5,177.5C 157.471,180.891 155.471,183.557 152.5,185.5C 119.832,185.333 87.165,185.5 54.5,186C 51.0221,188.706 50.6888,191.706 53.5,195C 85.8316,195.5 118.165,195.667 150.5,195.5C 151.388,198.054 151.721,200.721 151.5,203.5C 117.771,203.979 84.1045,203.479 50.5,202C 43.4673,197.227 41.9673,191.06 46,183.5C 47.7309,181.383 49.8976,179.883 52.5,179C 52.3091,167.707 57.9758,162.874 69.5,164.5C 69.5,147.833 69.5,131.167 69.5,114.5C 70.7671,111.939 70.7671,109.272 69.5,106.5C 69.5,102.167 69.5,97.8333 69.5,93.5C 64.7382,93.7243 60.5715,92.3909 57,89.5C 56.51,88.2068 56.3433,86.8734 56.5,85.5C 56.4914,83.6916 56.9914,82.0249 58,80.5C 63.5066,76.8428 68.6733,72.8428 73.5,68.5C 77.5,65.8333 81.5,63.1667 85.5,60.5C 88.3615,59.7529 90.3615,58.0862 91.5,55.5C 102.601,48.2466 113.601,40.7466 124.5,33C 126.5,32.3333 128.5,32.3333 130.5,33C 153.279,48.779 175.779,64.9457 198,81.5C 199.227,85.5913 198.394,89.0913 195.5,92C 192.207,92.8256 188.874,93.3256 185.5,93.5C 185.5,117.167 185.5,140.833 185.5,164.5C 187.833,164.5 190.167,164.5 192.5,164.5 Z M 126.5,40.5 C 148.456,54.8193 170.123,69.6526 191.5,85C 148.833,85.6667 106.167,85.6667 63.5,85C 84.5667,70.1446 105.567,55.3113 126.5,40.5 Z M 77.5,93.5 C 78.8333,93.5 80.1667,93.5 81.5,93.5C 81.5,117.167 81.5,140.833 81.5,164.5C 80.1667,164.5 78.8333,164.5 77.5,164.5C 77.5,140.833 77.5,117.167 77.5,93.5 Z M 89.5,93.5 C 90.8324,104.981 91.499,116.814 91.5,129C 91.1667,140.833 90.8333,152.667 90.5,164.5C 89.5003,140.843 89.1669,117.176 89.5,93.5 Z M 107.5,93.5 C 120.833,93.5 134.167,93.5 147.5,93.5C 147.5,117.167 147.5,140.833 147.5,164.5C 134.167,164.5 120.833,164.5 107.5,164.5C 107.5,140.833 107.5,117.167 107.5,93.5 Z M 163.5,93.5 C 164.832,104.981 165.499,116.814 165.5,129C 165.167,140.833 164.833,152.667 164.5,164.5C 163.5,140.843 163.167,117.176 163.5,93.5 Z M 173.5,93.5 C 174.833,93.5 176.167,93.5 177.5,93.5C 177.5,117.167 177.5,140.833 177.5,164.5C 176.167,164.5 174.833,164.5 173.5,164.5C 173.5,140.833 173.5,117.167 173.5,93.5 Z M 131.5,134.5 C 135.344,136.291 135.511,138.625 132,141.5C 131.503,139.19 131.337,136.857 131.5,134.5 Z"/></g>
<g><path style="opacity:0.769" fill="#fafafa" d="M 91.5,55.5 C 90.3615,58.0862 88.3615,59.7529 85.5,60.5C 81.2763,51.3906 74.2763,48.2239 64.5,51C 62.04,52.4578 59.8734,54.2911 58,56.5C 55.6891,60.9545 53.5224,65.4545 51.5,70C 50.2713,70.7811 48.938,71.2811 47.5,71.5C 44.3321,69.734 40.9988,68.9006 37.5,69C 34.9417,72.3223 32.9417,75.989 31.5,80C 27.5333,80.3748 23.5333,81.0414 19.5,82C 9.12408,92.7872 10.7907,101.12 24.5,107C 39.4769,106.645 54.4769,106.478 69.5,106.5C 70.7671,109.272 70.7671,111.939 69.5,114.5C 56.1433,114.221 42.81,114.555 29.5,115.5C 9.59381,113.129 2.42714,102.463 8,83.5C 12.2857,76.7226 18.4523,73.056 26.5,72.5C 29.9104,61.9632 36.9104,58.6298 47.5,62.5C 52.8964,45.3011 64.2298,39.4677 81.5,45C 85.7123,47.7111 89.0456,51.2111 91.5,55.5 Z"/></g>
<g><path style="opacity:0.793" fill="#fafafa" d="M 73.5,68.5 C 68.6733,72.8428 63.5066,76.8428 58,80.5C 56.9914,82.0249 56.4914,83.6916 56.5,85.5C 53.2947,87.0214 50.2947,86.688 47.5,84.5C 45.7445,86.6068 44.0778,88.7734 42.5,91C 39.6963,91.1293 37.0297,90.796 34.5,90C 32.357,92.7578 31.1903,95.9245 31,99.5C 26.567,101.662 24.4004,100.329 24.5,95.5C 24.7182,86.4492 29.3849,81.9492 38.5,82C 42.3336,78.2758 47.0003,76.4425 52.5,76.5C 57.8413,69.669 64.8413,67.0023 73.5,68.5 Z"/></g>
<g><path style="opacity:0.948" fill="#9ca3af" d="M 125.5,101.5 C 130.323,101.327 132.323,103.661 131.5,108.5C 135.749,108.913 138.749,111.079 140.5,115C 138.555,118.984 135.888,119.484 132.5,116.5C 131.345,119.446 131.179,122.446 132,125.5C 141.821,129.504 144.154,136.171 139,145.5C 137.084,147.209 134.918,148.543 132.5,149.5C 131.325,154.842 128.492,156.175 124,153.5C 123.51,152.207 123.343,150.873 123.5,149.5C 119.59,149.385 116.923,147.552 115.5,144C 116.393,139.222 118.726,138.388 122.5,141.5C 123.659,137.878 123.825,134.211 123,130.5C 111.762,122.642 111.762,114.975 123,107.5C 123.236,105.189 124.069,103.189 125.5,101.5 Z M 131.5,134.5 C 131.337,136.857 131.503,139.19 132,141.5C 135.511,138.625 135.344,136.291 131.5,134.5 Z"/></g>
<g><path style="opacity:0.91" fill="#dcb415" d="M 151.5,203.5 C 151.721,200.721 151.388,198.054 150.5,195.5C 151.167,192.167 151.833,188.833 152.5,185.5C 155.471,183.557 157.471,180.891 158.5,177.5C 161.205,175.488 163.872,173.488 166.5,171.5C 174.162,170.214 181.828,170.214 189.5,171.5C 189.833,172.833 190.167,172.833 190.5,171.5C 191.566,169.299 192.233,166.965 192.5,164.5C 200.653,149.759 212.986,144.259 229.5,148C 250.138,158.148 255.305,173.648 245,194.5C 234.164,207.199 221.164,210.199 206,203.5C 199.769,220.866 187.603,227.699 169.5,224C 159.712,220.385 153.712,213.552 151.5,203.5 Z M 203.5,191.5 C 206.904,192.018 210.237,193.518 213.5,196C 224.82,198.679 232.987,194.846 238,184.5C 241.384,167.1 234.217,158.266 216.5,158C 205.438,160.98 199.771,168.147 199.5,179.5C 199.5,178.833 199.167,178.5 198.5,178.5C 197.499,166.973 202.499,159.14 213.5,155C 234.333,153.167 243.833,162.667 242,183.5C 234.668,198.946 223.168,203.112 207.5,196C 205.808,194.693 204.475,193.193 203.5,191.5 Z M 188.5,214.5 C 186.987,216.241 184.987,217.241 182.5,217.5C 179.215,216.972 175.882,216.805 172.5,217C 158.805,210.584 154.972,200.417 161,186.5C 169.062,176.963 178.729,174.963 190,180.5C 190.749,181.635 190.583,182.635 189.5,183.5C 179.971,177.667 171.471,179.001 164,187.5C 158.395,198.246 160.561,207.079 170.5,214C 173.241,214.977 176.075,215.477 179,215.5C 181.54,215.038 183.873,215.038 186,215.5C 186.342,213.381 187.175,213.047 188.5,214.5 Z M 198.5,178.5 C 199.167,178.5 199.5,178.833 199.5,179.5C 200.628,183.09 202.295,186.423 204.5,189.5C 204.137,190.183 203.804,190.85 203.5,191.5C 199.224,187.982 197.558,183.649 198.5,178.5 Z M 188.5,214.5 C 191.449,211.313 193.949,207.646 196,203.5C 196.333,201.167 196.667,198.833 197,196.5C 199.086,204.64 196.253,210.64 188.5,214.5 Z"/></g>
<g><path style="opacity:0.964" fill="#dcb415" d="M 203.5,191.5 C 203.804,190.85 204.137,190.183 204.5,189.5C 202.295,186.423 200.628,183.09 199.5,179.5C 199.771,168.147 205.438,160.98 216.5,158C 234.217,158.266 241.384,167.1 238,184.5C 232.987,194.846 224.82,198.679 213.5,196C 210.237,193.518 206.904,192.018 203.5,191.5 Z"/></g>
</svg>
